<?xml version="1.0"?><svg id="Camada_1" xmlns="http://www.w3.org/2000/svg" viewBox="0 0 284.42 75.06"><defs></defs><path class="cls-1" d="M84.34,37.6V12.02h18.41v3.88h-13.77v7.67h7.62v3.83h-7.62v10.2h-4.63Z"></path><path class="cls-1" d="M111.29,37.97c-1.92,0-3.58-.4-4.98-1.21-1.4-.81-2.47-1.95-3.22-3.42s-1.12-3.22-1.12-5.22.37-3.72,1.12-5.21c.74-1.49,1.79-2.66,3.14-3.49,1.35-.83,2.94-1.25,4.77-1.25,1.18,0,2.3.19,3.36.57,1.06.38,2,.96,2.81,1.75.82.79,1.46,1.79,1.93,3.01.47,1.22.7,2.67.7,4.35v1.41h-15.72v-3.04h13.47l-2.11.89c0-1.09-.17-2.03-.5-2.84s-.82-1.44-1.48-1.9c-.65-.46-1.46-.69-2.44-.69s-1.8.23-2.49.69c-.69.46-1.21,1.07-1.56,1.85s-.53,1.63-.53,2.58v2.11c0,1.17.2,2.17.61,3,.41.83.98,1.46,1.72,1.9.74.44,1.6.65,2.58.65.64,0,1.23-.09,1.76-.27.53-.18.99-.46,1.37-.83.38-.37.68-.83.88-1.38l4.22.5c-.27,1.11-.78,2.08-1.52,2.91s-1.68,1.47-2.83,1.92c-1.15.45-2.47.68-3.96.68Z"></path><path class="cls-1" d="M128.52,12.02v25.57h-4.51V12.02h4.51Z"></path><path class="cls-1" d="M135.87,15.71c-.72,0-1.34-.24-1.85-.72-.51-.48-.77-1.06-.77-1.73s.26-1.27.77-1.75c.52-.48,1.13-.72,1.85-.72s1.32.24,1.84.72c.52.48.77,1.06.77,1.75s-.26,1.25-.77,1.73c-.51.48-1.13.72-1.84.72ZM133.6,37.6v-19.19h4.51v19.19h-4.51Z"></path><path class="cls-1" d="M146.9,18.41l3.86,7.11,3.93-7.11h4.79l-5.77,9.61,5.87,9.58h-4.75l-4.07-6.9-4,6.9h-4.79l5.82-9.58-5.68-9.61h4.79Z"></path><path class="cls-1" d="M172.79,37.6V12.02h9.82c1.84,0,3.38.29,4.6.87,1.22.58,2.14,1.37,2.75,2.37.61,1,.91,2.13.91,3.39,0,1.04-.2,1.93-.59,2.67-.39.74-.93,1.34-1.6,1.79-.68.46-1.43.79-2.27,1v.26c.92.03,1.79.31,2.62.82.83.51,1.51,1.22,2.04,2.14.53.92.8,2.02.8,3.31s-.32,2.51-.95,3.56c-.63,1.05-1.6,1.88-2.88,2.49-1.29.61-2.91.92-4.87.92h-10.37ZM177.43,22.9h4.6c.79,0,1.5-.15,2.15-.45.64-.3,1.15-.72,1.52-1.26.37-.54.56-1.19.56-1.93,0-.98-.35-1.8-1.05-2.45s-1.72-.97-3.07-.97h-4.7v7.05ZM177.43,33.73h4.98c1.68,0,2.9-.33,3.65-.98.75-.65,1.12-1.48,1.12-2.49,0-.77-.19-1.45-.57-2.06-.38-.61-.91-1.09-1.61-1.44-.69-.35-1.51-.53-2.45-.53h-5.13v7.5Z"></path><path class="cls-1" d="M204.66,37.97c-1.92,0-3.58-.4-4.98-1.21-1.4-.81-2.47-1.95-3.22-3.42s-1.12-3.22-1.12-5.22.37-3.72,1.12-5.21c.74-1.49,1.79-2.66,3.14-3.49,1.35-.83,2.94-1.25,4.77-1.25,1.18,0,2.3.19,3.36.57,1.06.38,2,.96,2.81,1.75.82.79,1.46,1.79,1.93,3.01.47,1.22.7,2.67.7,4.35v1.41h-15.72v-3.04h13.47l-2.11.89c0-1.09-.17-2.03-.5-2.84s-.82-1.44-1.48-1.9c-.65-.46-1.46-.69-2.44-.69s-1.8.23-2.49.69c-.69.46-1.21,1.07-1.56,1.85s-.53,1.63-.53,2.58v2.11c0,1.17.2,2.17.61,3,.41.83.98,1.46,1.72,1.9.74.44,1.6.65,2.58.65.64,0,1.23-.09,1.76-.27.53-.18.99-.46,1.37-.83.38-.37.68-.83.88-1.38l4.22.5c-.27,1.11-.78,2.08-1.52,2.91s-1.68,1.47-2.83,1.92c-1.15.45-2.47.68-3.96.68Z"></path><path class="cls-1" d="M221.88,26.37v11.23h-4.51v-19.19h4.43v3.28h.22c.43-1.08,1.12-1.93,2.05-2.57s2.12-.95,3.56-.95c1.33,0,2.48.28,3.47.84.98.56,1.75,1.38,2.29,2.46.54,1.08.82,2.39.82,3.92v12.2h-4.51v-11.5c0-1.28-.33-2.29-1-3.01-.66-.73-1.58-1.09-2.75-1.09-.79,0-1.49.17-2.1.52s-1.09.84-1.44,1.48c-.35.65-.52,1.44-.52,2.38Z"></path><path class="cls-1" d="M241.56,15.71c-.72,0-1.34-.24-1.85-.72s-.77-1.06-.77-1.73.26-1.27.77-1.75c.51-.48,1.13-.72,1.85-.72s1.32.24,1.84.72c.52.48.77,1.06.77,1.75s-.26,1.25-.77,1.73-1.13.72-1.84.72ZM239.29,37.6v-19.19h4.51v19.19h-4.51Z"></path><path class="cls-1" d="M258.45,18.41v3.5h-11v-3.5h11ZM250.14,13.84h4.51v17.99c0,.76.17,1.31.5,1.67s.86.54,1.58.54c.19,0,.41-.02.65-.05s.46-.07.65-.12l.77,3.54c-.48.15-.97.26-1.46.33-.49.07-.98.11-1.48.11-1.79,0-3.19-.47-4.21-1.42-1.02-.94-1.53-2.23-1.53-3.87V13.84Z"></path><path class="cls-1" d="M270.87,37.97c-1.88,0-3.5-.41-4.87-1.24-1.37-.82-2.43-1.98-3.18-3.47-.75-1.49-1.12-3.22-1.12-5.18s.38-3.72,1.12-5.21c.75-1.49,1.81-2.65,3.18-3.48s3-1.24,4.87-1.24,3.5.41,4.88,1.24,2.44,1.98,3.19,3.48c.75,1.49,1.13,3.23,1.13,5.21s-.38,3.7-1.13,5.18-1.82,2.64-3.19,3.47c-1.37.82-3,1.24-4.88,1.24ZM270.87,34.34c1.04,0,1.9-.28,2.58-.83.67-.55,1.18-1.31,1.52-2.26s.51-2,.51-3.16-.17-2.24-.51-3.19-.84-1.7-1.52-2.26c-.68-.55-1.53-.83-2.58-.83s-1.87.28-2.56.83c-.69.56-1.2,1.31-1.54,2.26-.34.95-.51,2.01-.51,3.19s.17,2.21.51,3.16c.34.95.85,1.7,1.54,2.26.69.56,1.54.83,2.56.83Z"></path><path class="cls-1" d="M91.34,63.91c-1.12,0-2.1-.3-2.94-.89-.84-.59-1.5-1.42-1.97-2.49-.47-1.07-.7-2.31-.7-3.71s.24-2.63.71-3.69c.47-1.06,1.13-1.88,1.97-2.47.84-.59,1.82-.89,2.94-.89.84,0,1.53.15,2.08.45.55.3.99.66,1.33,1.09.34.43.6.85.78,1.26h.13v-7.16h1.58v18.21h-1.53v-2.54h-.18c-.18.42-.44.84-.78,1.28-.34.44-.79.81-1.34,1.11-.55.3-1.25.45-2.08.45ZM91.52,62.46c.89,0,1.64-.24,2.26-.73s1.09-1.16,1.42-2.01c.33-.85.5-1.82.5-2.91s-.16-2.07-.49-2.91c-.33-.84-.8-1.5-1.42-1.97s-1.38-.71-2.27-.71-1.67.25-2.3.75c-.63.5-1.1,1.17-1.42,2.01-.32.84-.48,1.79-.48,2.84s.16,2,.49,2.86c.33.86.8,1.54,1.42,2.04.62.5,1.39.76,2.29.76Z"></path><path class="cls-1" d="M108.05,63.91c-1.27,0-2.38-.3-3.31-.9-.94-.6-1.66-1.43-2.16-2.49s-.76-2.28-.76-3.65.25-2.6.75-3.67c.5-1.07,1.2-1.91,2.1-2.52.9-.61,1.93-.92,3.12-.92.73,0,1.45.14,2.14.41.69.27,1.32.69,1.87,1.24.55.55.99,1.26,1.31,2.11.32.85.48,1.86.48,3.04v.71h-10.67v-1.39h9.81l-.72.54c0-.99-.17-1.88-.51-2.66s-.82-1.4-1.45-1.86c-.63-.46-1.38-.68-2.26-.68s-1.64.23-2.3.69c-.66.46-1.17,1.07-1.53,1.83-.36.76-.54,1.59-.54,2.5v.82c0,1.09.19,2.04.57,2.85.38.81.92,1.44,1.61,1.89.7.45,1.52.67,2.46.67.64,0,1.21-.1,1.7-.31.49-.2.9-.48,1.23-.83.33-.35.59-.72.76-1.13l1.5.5c-.21.57-.55,1.1-1.02,1.58-.47.48-1.05.88-1.76,1.17-.7.3-1.51.45-2.41.45Z"></path><path class="cls-1" d="M127.25,52.97l-1.44.39c-.21-.61-.56-1.13-1.06-1.56-.49-.43-1.2-.64-2.12-.64s-1.68.22-2.27.67c-.6.44-.89,1.01-.89,1.7,0,.58.2,1.05.61,1.42.4.37,1.03.66,1.88.87l2.07.5c1.14.29,2,.73,2.57,1.33.58.6.86,1.35.86,2.27,0,.77-.21,1.45-.64,2.05-.43.6-1.02,1.08-1.78,1.42-.76.34-1.64.51-2.64.51-1.34,0-2.44-.3-3.3-.91s-1.42-1.48-1.66-2.61l1.52-.37c.19.81.57,1.42,1.15,1.83s1.34.62,2.27.62c1.04,0,1.88-.24,2.52-.71.63-.47.95-1.06.95-1.76,0-1.12-.75-1.87-2.24-2.24l-2.22-.54c-1.19-.29-2.07-.73-2.64-1.34-.57-.61-.86-1.37-.86-2.29,0-.75.21-1.41.62-1.99.41-.58.98-1.03,1.69-1.36.72-.33,1.53-.49,2.44-.49,1.25,0,2.26.29,3.01.86.75.57,1.29,1.35,1.61,2.34Z"></path><path class="cls-1" d="M132.8,47.62c-.33,0-.61-.11-.84-.34-.23-.22-.35-.49-.35-.8s.12-.59.35-.81c.23-.22.51-.33.84-.33s.6.11.83.33c.23.22.34.49.34.81s-.11.58-.34.8c-.23.22-.5.34-.83.34ZM132.01,63.61v-13.66h1.58v13.66h-1.58Z"></path><path class="cls-1" d="M144.06,69.02c-1.39,0-2.53-.26-3.41-.78-.88-.52-1.52-1.17-1.92-1.96l1.29-.86c.19.35.45.69.78,1.02s.77.6,1.29.82c.53.22,1.18.32,1.96.32,1.21,0,2.19-.3,2.94-.9.75-.6,1.12-1.54,1.12-2.81v-3.08h-.16c-.18.42-.44.83-.78,1.24-.34.41-.79.75-1.34,1.03s-1.24.41-2.07.41c-1.09,0-2.06-.27-2.9-.81-.84-.54-1.51-1.31-1.99-2.32-.48-1.01-.73-2.2-.73-3.59s.24-2.6.71-3.65,1.13-1.87,1.98-2.46c.85-.59,1.83-.89,2.96-.89.84,0,1.54.15,2.09.45.55.3,1,.66,1.33,1.09.33.43.59.85.78,1.26h.17v-2.62h1.51v14.02c0,1.16-.24,2.11-.73,2.85-.48.75-1.15,1.3-2,1.66-.85.36-1.81.54-2.9.54ZM143.97,62.02c1.31,0,2.33-.47,3.07-1.42.73-.94,1.1-2.24,1.1-3.89,0-1.07-.16-2.01-.48-2.84-.32-.83-.79-1.48-1.42-1.96s-1.38-.71-2.27-.71-1.69.25-2.32.74c-.63.49-1.1,1.15-1.42,1.99s-.48,1.76-.48,2.79.16,1.96.49,2.76c.33.8.8,1.42,1.44,1.87.63.45,1.4.67,2.3.67Z"></path><path class="cls-1" d="M156.55,55.08v8.53h-1.58v-13.66h1.53v2.16h.16c.32-.71.81-1.27,1.49-1.7.68-.42,1.52-.64,2.52-.64.92,0,1.73.19,2.43.57.7.38,1.24.95,1.63,1.69.39.74.59,1.65.59,2.74v8.84h-1.58v-8.74c0-1.12-.31-2-.94-2.66-.63-.66-1.47-.99-2.52-.99-.72,0-1.36.16-1.92.47-.56.31-1,.76-1.33,1.33-.32.57-.48,1.26-.48,2.06Z"></path><path class="cls-1" d="M180.29,45.41v18.21h-1.58v-18.21h1.58Z"></path><path class="cls-1" d="M191.09,63.91c-1.27,0-2.38-.3-3.31-.9s-1.66-1.43-2.16-2.49c-.51-1.06-.76-2.28-.76-3.65s.25-2.6.75-3.67c.5-1.07,1.2-1.91,2.1-2.52s1.93-.92,3.12-.92c.73,0,1.45.14,2.14.41.69.27,1.32.69,1.87,1.24.55.55.99,1.26,1.31,2.11.32.85.48,1.86.48,3.04v.71h-10.67v-1.39h9.81l-.72.54c0-.99-.17-1.88-.51-2.66-.34-.78-.82-1.4-1.45-1.86-.63-.46-1.38-.68-2.26-.68s-1.64.23-2.3.69c-.66.46-1.17,1.07-1.53,1.83-.36.76-.54,1.59-.54,2.5v.82c0,1.09.19,2.04.57,2.85.38.81.92,1.44,1.61,1.89.7.45,1.52.67,2.46.67.64,0,1.21-.1,1.7-.31.49-.2.9-.48,1.23-.83.33-.35.59-.72.76-1.13l1.5.5c-.21.57-.55,1.1-1.02,1.58-.47.48-1.06.88-1.76,1.17-.71.3-1.51.45-2.41.45Z"></path><path class="cls-1" d="M204.93,63.92c-.82,0-1.58-.16-2.26-.48-.68-.32-1.23-.79-1.63-1.41-.4-.62-.61-1.36-.61-2.24,0-.68.13-1.24.38-1.7.25-.46.62-.83,1.09-1.13s1.03-.53,1.67-.71c.64-.18,1.35-.31,2.12-.4.77-.1,1.41-.18,1.94-.25.53-.07.93-.18,1.21-.34.28-.15.42-.4.42-.75v-.32c0-.94-.28-1.67-.83-2.21-.55-.53-1.35-.8-2.38-.8s-1.79.22-2.41.65c-.62.43-1.05.94-1.29,1.53l-1.52-.55c.31-.74.74-1.34,1.28-1.78.55-.45,1.16-.77,1.83-.97.68-.2,1.36-.3,2.05-.3.52,0,1.06.07,1.62.21.56.14,1.09.38,1.58.71.49.33.89.8,1.19,1.4.31.6.46,1.35.46,2.27v9.26h-1.59v-2.16h-.1c-.18.4-.46.79-.83,1.17s-.84.69-1.41.94c-.56.24-1.23.37-1.99.37ZM205.15,62.48c.84,0,1.57-.19,2.18-.56s1.09-.87,1.42-1.5.5-1.31.5-2.05v-1.97c-.12.11-.32.22-.59.31-.27.09-.59.17-.94.23-.35.07-.71.12-1.07.17-.36.05-.68.09-.96.12-.77.1-1.42.25-1.97.45s-.97.48-1.26.83c-.29.35-.43.8-.43,1.36,0,.82.29,1.46.89,1.92.59.46,1.34.68,2.24.68Z"></path><path class="cls-1" d="M221.02,63.91c-1.12,0-2.1-.3-2.94-.89-.84-.59-1.5-1.42-1.97-2.49-.47-1.07-.7-2.31-.7-3.71s.24-2.63.71-3.69c.47-1.06,1.13-1.88,1.97-2.47.84-.59,1.82-.89,2.94-.89.84,0,1.53.15,2.08.45.55.3.99.66,1.33,1.09.34.43.6.85.78,1.26h.13v-7.16h1.58v18.21h-1.53v-2.54h-.18c-.18.42-.44.84-.78,1.28-.34.44-.79.81-1.34,1.11-.55.3-1.25.45-2.08.45ZM221.21,62.46c.89,0,1.64-.24,2.26-.73s1.09-1.16,1.42-2.01c.33-.85.49-1.82.49-2.91s-.16-2.07-.49-2.91c-.33-.84-.8-1.5-1.42-1.97s-1.38-.71-2.27-.71-1.67.25-2.3.75-1.1,1.17-1.42,2.01-.48,1.79-.48,2.84.16,2,.49,2.86.8,1.54,1.42,2.04c.62.5,1.39.76,2.29.76Z"></path><path class="cls-1" d="M5.97,37.17c-.05.2,69.93,3.31,69.66-30.83L5.97,37.17Z"></path><path class="cls-1" d="M75.49,69.16c0-23.43-31.75-27.05-52.34-28.48l-17.1,28.48h69.44Z"></path><polygon class="cls-2" points="5.97 36.07 5.97 35.34 4.35 36.07 5.97 36.07"></polygon><path class="cls-1" d="M67.79,5.9H5.92l.05,27.34c.06,0,61.82-27.34,61.82-27.34Z"></path><path class="cls-1" d="M5.99,40.67s-.03.03-.04.04l-.03,14.2v1.18s.02,6.75.02,6.75l13.25-22.2c-.14,0-13.2.03-13.2.03Z"></path></svg>